<?xml version="1.0" encoding="utf-8" standalone="no"?>
<!DOCTYPE svg PUBLIC "-//W3C//DTD SVG 1.1//EN"
  "http://www.w3.org/Graphics/SVG/1.1/DTD/svg11.dtd">
<svg xmlns:xlink="http://www.w3.org/1999/xlink" width="720pt" height="576pt" viewBox="0 0 720 576" xmlns="http://www.w3.org/2000/svg" version="1.1">
 <metadata>
  <rdf:RDF xmlns:dc="http://purl.org/dc/elements/1.1/" xmlns:cc="http://creativecommons.org/ns#" xmlns:rdf="http://www.w3.org/1999/02/22-rdf-syntax-ns#">
   <cc:Work>
    <dc:type rdf:resource="http://purl.org/dc/dcmitype/StillImage"/>
    <dc:date>2025-10-18T20:26:23.308312</dc:date>
    <dc:format>image/svg+xml</dc:format>
    <dc:creator>
     <cc:Agent>
      <dc:title>Matplotlib v3.8.2, https://matplotlib.org/</dc:title>
     </cc:Agent>
    </dc:creator>
   </cc:Work>
  </rdf:RDF>
 </metadata>
 <defs>
  <style type="text/css">*{stroke-linejoin: round; stroke-linecap: butt}</style>
 </defs>
 <g id="figure_1">
  <g id="patch_1">
   <path d="M 0 576 
L 720 576 
L 720 0 
L 0 0 
z
" style="fill: #ffffff"/>
  </g>
  <g id="axes_1">
   <g id="patch_2">
    <path d="M 113.947368 563 
L 606.052632 563 
L 606.052632 13 
L 113.947368 13 
z
" clip-path="url(#p09ca0002eb)" style="fill: #ffffff; stroke: #000000; stroke-width: 2; stroke-linejoin: miter"/>
   </g>
   <g id="patch_3">
    <path d="M 113.947368 563 
L 316.578947 563 
L 316.578947 360.368421 
L 113.947368 360.368421 
z
" clip-path="url(#p09ca0002eb)" style="fill: #add8e6; stroke: #00008b; stroke-linejoin: miter"/>
   </g>
   <g id="patch_4">
    <path d="M 403.421053 143.263158 
L 606.052632 143.263158 
L 606.052632 13 
L 403.421053 13 
z
" clip-path="url(#p09ca0002eb)" style="fill: #add8e6; stroke: #00008b; stroke-linejoin: miter"/>
   </g>
   <g id="patch_5">
    <path d="M 316.578947 563 
L 461.315789 563 
L 461.315789 418.263158 
L 316.578947 360.368421 
z
" clip-path="url(#p09ca0002eb)" style="fill: #add8e6; stroke: #00008b; stroke-linejoin: miter"/>
   </g>
   <g id="patch_6">
    <path d="M 113.947368 360.368421 
L 258.684211 360.368421 
L 258.684211 215.631579 
L 113.947368 215.631579 
z
" clip-path="url(#p09ca0002eb)" style="fill: #ff0000; opacity: 0.6; stroke-dasharray: 9.25,4; stroke-dashoffset: 0; stroke: #8b0000; stroke-width: 2.5; stroke-linejoin: miter"/>
   </g>
   <g id="patch_7">
    <path d="M 461.315789 288 
L 606.052632 288 
L 606.052632 143.263158 
L 461.315789 143.263158 
z
" clip-path="url(#p09ca0002eb)" style="fill: #ff0000; opacity: 0.6; stroke-dasharray: 9.25,4; stroke-dashoffset: 0; stroke: #8b0000; stroke-width: 2.5; stroke-linejoin: miter"/>
   </g>
   <g id="patch_8">
    <path d="M 316.578947 360.368421 
L 461.315789 360.368421 
L 461.315789 215.631579 
L 316.578947 215.631579 
z
" clip-path="url(#p09ca0002eb)" style="fill: #ff0000; opacity: 0.6; stroke-dasharray: 9.25,4; stroke-dashoffset: 0; stroke: #8b0000; stroke-width: 2.5; stroke-linejoin: miter"/>
   </g>
   <g id="text_1">
    <g id="patch_9">
     <path d="M 158.849852 304.125563 
L 213.781727 304.125563 
Q 217.381727 304.125563 217.381727 300.525562 
L 217.381727 275.474437 
Q 217.381727 271.874437 213.781727 271.874437 
L 158.849852 271.874437 
Q 155.249852 271.874437 155.249852 275.474437 
L 155.249852 300.525562 
Q 155.249852 304.125563 158.849852 304.125563 
z
" style="fill: #ffffff; opacity: 0.7"/>
    </g>
    <!-- BL -->
    <g transform="translate(177.919539 284.592562) scale(0.12 -0.12)">
     <defs>
      <path id="DejaVuSans-Bold-42" d="M 2456 2859 
Q 2741 2859 2887 2984 
Q 3034 3109 3034 3353 
Q 3034 3594 2887 3720 
Q 2741 3847 2456 3847 
L 1791 3847 
L 1791 2859 
L 2456 2859 
z
M 2497 819 
Q 2859 819 3042 972 
Q 3225 1125 3225 1434 
Q 3225 1738 3044 1889 
Q 2863 2041 2497 2041 
L 1791 2041 
L 1791 819 
L 2497 819 
z
M 3616 2497 
Q 4003 2384 4215 2081 
Q 4428 1778 4428 1338 
Q 4428 663 3972 331 
Q 3516 0 2584 0 
L 588 0 
L 588 4666 
L 2394 4666 
Q 3366 4666 3802 4372 
Q 4238 4078 4238 3431 
Q 4238 3091 4078 2852 
Q 3919 2613 3616 2497 
z
" transform="scale(0.015625)"/>
      <path id="DejaVuSans-Bold-4c" d="M 588 4666 
L 1791 4666 
L 1791 909 
L 3903 909 
L 3903 0 
L 588 0 
L 588 4666 
z
" transform="scale(0.015625)"/>
     </defs>
     <use xlink:href="#DejaVuSans-Bold-42"/>
     <use xlink:href="#DejaVuSans-Bold-4c" x="76.220703"/>
    </g>
    <!-- Position -->
    <g transform="translate(158.849852 298.029938) scale(0.12 -0.12)">
     <defs>
      <path id="DejaVuSans-Bold-50" d="M 588 4666 
L 2584 4666 
Q 3475 4666 3951 4270 
Q 4428 3875 4428 3144 
Q 4428 2409 3951 2014 
Q 3475 1619 2584 1619 
L 1791 1619 
L 1791 0 
L 588 0 
L 588 4666 
z
M 1791 3794 
L 1791 2491 
L 2456 2491 
Q 2806 2491 2997 2661 
Q 3188 2831 3188 3144 
Q 3188 3456 2997 3625 
Q 2806 3794 2456 3794 
L 1791 3794 
z
" transform="scale(0.015625)"/>
      <path id="DejaVuSans-Bold-6f" d="M 2203 2784 
Q 1831 2784 1636 2517 
Q 1441 2250 1441 1747 
Q 1441 1244 1636 976 
Q 1831 709 2203 709 
Q 2569 709 2762 976 
Q 2956 1244 2956 1747 
Q 2956 2250 2762 2517 
Q 2569 2784 2203 2784 
z
M 2203 3584 
Q 3106 3584 3614 3096 
Q 4122 2609 4122 1747 
Q 4122 884 3614 396 
Q 3106 -91 2203 -91 
Q 1297 -91 786 396 
Q 275 884 275 1747 
Q 275 2609 786 3096 
Q 1297 3584 2203 3584 
z
" transform="scale(0.015625)"/>
      <path id="DejaVuSans-Bold-73" d="M 3272 3391 
L 3272 2541 
Q 2913 2691 2578 2766 
Q 2244 2841 1947 2841 
Q 1628 2841 1473 2761 
Q 1319 2681 1319 2516 
Q 1319 2381 1436 2309 
Q 1553 2238 1856 2203 
L 2053 2175 
Q 2913 2066 3209 1816 
Q 3506 1566 3506 1031 
Q 3506 472 3093 190 
Q 2681 -91 1863 -91 
Q 1516 -91 1145 -36 
Q 775 19 384 128 
L 384 978 
Q 719 816 1070 734 
Q 1422 653 1784 653 
Q 2113 653 2278 743 
Q 2444 834 2444 1013 
Q 2444 1163 2330 1236 
Q 2216 1309 1875 1350 
L 1678 1375 
Q 931 1469 631 1722 
Q 331 1975 331 2491 
Q 331 3047 712 3315 
Q 1094 3584 1881 3584 
Q 2191 3584 2531 3537 
Q 2872 3491 3272 3391 
z
" transform="scale(0.015625)"/>
      <path id="DejaVuSans-Bold-69" d="M 538 3500 
L 1656 3500 
L 1656 0 
L 538 0 
L 538 3500 
z
M 538 4863 
L 1656 4863 
L 1656 3950 
L 538 3950 
L 538 4863 
z
" transform="scale(0.015625)"/>
      <path id="DejaVuSans-Bold-74" d="M 1759 4494 
L 1759 3500 
L 2913 3500 
L 2913 2700 
L 1759 2700 
L 1759 1216 
Q 1759 972 1856 886 
Q 1953 800 2241 800 
L 2816 800 
L 2816 0 
L 1856 0 
Q 1194 0 917 276 
Q 641 553 641 1216 
L 641 2700 
L 84 2700 
L 84 3500 
L 641 3500 
L 641 4494 
L 1759 4494 
z
" transform="scale(0.015625)"/>
      <path id="DejaVuSans-Bold-6e" d="M 4056 2131 
L 4056 0 
L 2931 0 
L 2931 347 
L 2931 1631 
Q 2931 2084 2911 2256 
Q 2891 2428 2841 2509 
Q 2775 2619 2662 2680 
Q 2550 2741 2406 2741 
Q 2056 2741 1856 2470 
Q 1656 2200 1656 1722 
L 1656 0 
L 538 0 
L 538 3500 
L 1656 3500 
L 1656 2988 
Q 1909 3294 2193 3439 
Q 2478 3584 2822 3584 
Q 3428 3584 3742 3212 
Q 4056 2841 4056 2131 
z
" transform="scale(0.015625)"/>
     </defs>
     <use xlink:href="#DejaVuSans-Bold-50"/>
     <use xlink:href="#DejaVuSans-Bold-6f" x="73.291016"/>
     <use xlink:href="#DejaVuSans-Bold-73" x="141.992188"/>
     <use xlink:href="#DejaVuSans-Bold-69" x="201.513672"/>
     <use xlink:href="#DejaVuSans-Bold-74" x="235.791016"/>
     <use xlink:href="#DejaVuSans-Bold-69" x="283.59375"/>
     <use xlink:href="#DejaVuSans-Bold-6f" x="317.871094"/>
     <use xlink:href="#DejaVuSans-Bold-6e" x="386.572266"/>
    </g>
   </g>
   <g id="text_2">
    <g id="patch_10">
     <path d="M 506.218273 231.757141 
L 561.150148 231.757141 
Q 564.750148 231.757141 564.750148 228.157141 
L 564.750148 203.106016 
Q 564.750148 199.506016 561.150148 199.506016 
L 506.218273 199.506016 
Q 502.618273 199.506016 502.618273 203.106016 
L 502.618273 228.157141 
Q 502.618273 231.757141 506.218273 231.757141 
z
" style="fill: #ffffff; opacity: 0.7"/>
    </g>
    <!-- UR -->
    <g transform="translate(524.192023 212.224141) scale(0.12 -0.12)">
     <defs>
      <path id="DejaVuSans-Bold-55" d="M 588 4666 
L 1791 4666 
L 1791 1869 
Q 1791 1291 1980 1042 
Q 2169 794 2597 794 
Q 3028 794 3217 1042 
Q 3406 1291 3406 1869 
L 3406 4666 
L 4609 4666 
L 4609 1869 
Q 4609 878 4112 393 
Q 3616 -91 2597 -91 
Q 1581 -91 1084 393 
Q 588 878 588 1869 
L 588 4666 
z
" transform="scale(0.015625)"/>
      <path id="DejaVuSans-Bold-52" d="M 2297 2597 
Q 2675 2597 2839 2737 
Q 3003 2878 3003 3200 
Q 3003 3519 2839 3656 
Q 2675 3794 2297 3794 
L 1791 3794 
L 1791 2597 
L 2297 2597 
z
M 1791 1766 
L 1791 0 
L 588 0 
L 588 4666 
L 2425 4666 
Q 3347 4666 3776 4356 
Q 4206 4047 4206 3378 
Q 4206 2916 3982 2619 
Q 3759 2322 3309 2181 
Q 3556 2125 3751 1926 
Q 3947 1728 4147 1325 
L 4800 0 
L 3519 0 
L 2950 1159 
Q 2778 1509 2601 1637 
Q 2425 1766 2131 1766 
L 1791 1766 
z
" transform="scale(0.015625)"/>
     </defs>
     <use xlink:href="#DejaVuSans-Bold-55"/>
     <use xlink:href="#DejaVuSans-Bold-52" x="81.201172"/>
    </g>
    <!-- Position -->
    <g transform="translate(506.218273 225.661516) scale(0.12 -0.12)">
     <use xlink:href="#DejaVuSans-Bold-50"/>
     <use xlink:href="#DejaVuSans-Bold-6f" x="73.291016"/>
     <use xlink:href="#DejaVuSans-Bold-73" x="141.992188"/>
     <use xlink:href="#DejaVuSans-Bold-69" x="201.513672"/>
     <use xlink:href="#DejaVuSans-Bold-74" x="235.791016"/>
     <use xlink:href="#DejaVuSans-Bold-69" x="283.59375"/>
     <use xlink:href="#DejaVuSans-Bold-6f" x="317.871094"/>
     <use xlink:href="#DejaVuSans-Bold-6e" x="386.572266"/>
    </g>
   </g>
   <g id="text_3">
    <g id="patch_11">
     <path d="M 361.481431 304.125563 
L 416.413306 304.125563 
Q 420.013306 304.125563 420.013306 300.525562 
L 420.013306 275.474437 
Q 420.013306 271.874437 416.413306 271.874437 
L 361.481431 271.874437 
Q 357.881431 271.874437 357.881431 275.474437 
L 357.881431 300.525562 
Q 357.881431 304.125563 361.481431 304.125563 
z
" style="fill: #ffffff; opacity: 0.7"/>
    </g>
    <!-- NCG -->
    <g transform="translate(374.597993 284.592562) scale(0.12 -0.12)">
     <defs>
      <path id="DejaVuSans-Bold-4e" d="M 588 4666 
L 1931 4666 
L 3628 1466 
L 3628 4666 
L 4769 4666 
L 4769 0 
L 3425 0 
L 1728 3200 
L 1728 0 
L 588 0 
L 588 4666 
z
" transform="scale(0.015625)"/>
      <path id="DejaVuSans-Bold-43" d="M 4288 256 
Q 3956 84 3597 -3 
Q 3238 -91 2847 -91 
Q 1681 -91 1000 561 
Q 319 1213 319 2328 
Q 319 3447 1000 4098 
Q 1681 4750 2847 4750 
Q 3238 4750 3597 4662 
Q 3956 4575 4288 4403 
L 4288 3438 
Q 3953 3666 3628 3772 
Q 3303 3878 2944 3878 
Q 2300 3878 1931 3465 
Q 1563 3053 1563 2328 
Q 1563 1606 1931 1193 
Q 2300 781 2944 781 
Q 3303 781 3628 887 
Q 3953 994 4288 1222 
L 4288 256 
z
" transform="scale(0.015625)"/>
      <path id="DejaVuSans-Bold-47" d="M 4781 347 
Q 4331 128 3847 18 
Q 3363 -91 2847 -91 
Q 1681 -91 1000 561 
Q 319 1213 319 2328 
Q 319 3456 1012 4103 
Q 1706 4750 2913 4750 
Q 3378 4750 3804 4662 
Q 4231 4575 4609 4403 
L 4609 3438 
Q 4219 3659 3833 3768 
Q 3447 3878 3059 3878 
Q 2341 3878 1952 3476 
Q 1563 3075 1563 2328 
Q 1563 1588 1938 1184 
Q 2313 781 3003 781 
Q 3191 781 3352 804 
Q 3513 828 3641 878 
L 3641 1784 
L 2906 1784 
L 2906 2591 
L 4781 2591 
L 4781 347 
z
" transform="scale(0.015625)"/>
     </defs>
     <use xlink:href="#DejaVuSans-Bold-4e"/>
     <use xlink:href="#DejaVuSans-Bold-43" x="83.691406"/>
     <use xlink:href="#DejaVuSans-Bold-47" x="157.080078"/>
    </g>
    <!-- Position -->
    <g transform="translate(361.481431 298.029938) scale(0.12 -0.12)">
     <use xlink:href="#DejaVuSans-Bold-50"/>
     <use xlink:href="#DejaVuSans-Bold-6f" x="73.291016"/>
     <use xlink:href="#DejaVuSans-Bold-73" x="141.992188"/>
     <use xlink:href="#DejaVuSans-Bold-69" x="201.513672"/>
     <use xlink:href="#DejaVuSans-Bold-74" x="235.791016"/>
     <use xlink:href="#DejaVuSans-Bold-69" x="283.59375"/>
     <use xlink:href="#DejaVuSans-Bold-6f" x="317.871094"/>
     <use xlink:href="#DejaVuSans-Bold-6e" x="386.572266"/>
    </g>
   </g>
  </g>
 </g>
 <defs>
  <clipPath id="p09ca0002eb">
   <rect x="104.105263" y="2" width="511.789474" height="572"/>
  </clipPath>
 </defs>
</svg>
