<?xml version="1.0" encoding="utf-8" standalone="no"?>
<!DOCTYPE svg PUBLIC "-//W3C//DTD SVG 1.1//EN"
  "http://www.w3.org/Graphics/SVG/1.1/DTD/svg11.dtd">
<svg xmlns:xlink="http://www.w3.org/1999/xlink" width="720pt" height="576pt" viewBox="0 0 720 576" xmlns="http://www.w3.org/2000/svg" version="1.1">
 <metadata>
  <rdf:RDF xmlns:dc="http://purl.org/dc/elements/1.1/" xmlns:cc="http://creativecommons.org/ns#" xmlns:rdf="http://www.w3.org/1999/02/22-rdf-syntax-ns#">
   <cc:Work>
    <dc:type rdf:resource="http://purl.org/dc/dcmitype/StillImage"/>
    <dc:date>2025-10-18T20:19:05.573970</dc:date>
    <dc:format>image/svg+xml</dc:format>
    <dc:creator>
     <cc:Agent>
      <dc:title>Matplotlib v3.8.2, https://matplotlib.org/</dc:title>
     </cc:Agent>
    </dc:creator>
   </cc:Work>
  </rdf:RDF>
 </metadata>
 <defs>
  <style type="text/css">*{stroke-linejoin: round; stroke-linecap: butt}</style>
 </defs>
 <g id="figure_1">
  <g id="patch_1">
   <path d="M 0 576 
L 720 576 
L 720 0 
L 0 0 
z
" style="fill: #ffffff"/>
  </g>
  <g id="axes_1">
   <g id="patch_2">
    <path d="M 129.808612 545.272727 
L 590.191388 545.272727 
L 590.191388 30.727273 
L 129.808612 30.727273 
z
" clip-path="url(#p12b86a55b9)" style="fill: #ffffff; stroke: #000000; stroke-width: 2; stroke-linejoin: miter"/>
   </g>
   <g id="patch_3">
    <path d="M 129.808612 545.272727 
L 319.37799 545.272727 
L 319.37799 355.703349 
L 129.808612 355.703349 
z
" clip-path="url(#p12b86a55b9)" style="fill: #a9d0f5; stroke: #00008b; stroke-linejoin: miter"/>
   </g>
   <g id="patch_4">
    <path d="M 400.62201 152.593301 
L 590.191388 152.593301 
L 590.191388 30.727273 
L 400.62201 30.727273 
z
" clip-path="url(#p12b86a55b9)" style="fill: #a9d0f5; stroke: #00008b; stroke-linejoin: miter"/>
   </g>
   <g id="patch_5">
    <path d="M 319.37799 545.272727 
L 454.784689 545.272727 
L 454.784689 409.866029 
L 319.37799 355.703349 
z
" clip-path="url(#p12b86a55b9)" style="fill: #a9d0f5; stroke: #00008b; stroke-linejoin: miter"/>
   </g>
   <g id="patch_6">
    <path d="M 129.808612 355.703349 
L 265.215311 355.703349 
L 265.215311 220.296651 
L 129.808612 220.296651 
L 129.808612 355.703349 
z
" clip-path="url(#p12b86a55b9)" style="fill: none; stroke-dasharray: 9.25,4; stroke-dashoffset: 0; stroke: #00008b; stroke-width: 2.5; stroke-linejoin: miter"/>
   </g>
   <g id="patch_7">
    <path d="M 454.784689 545.272727 
L 590.191388 545.272727 
L 590.191388 409.866029 
L 454.784689 409.866029 
L 454.784689 545.272727 
z
" clip-path="url(#p12b86a55b9)" style="fill: none; stroke-dasharray: 9.25,4; stroke-dashoffset: 0; stroke: #000000; stroke-width: 2.5; stroke-linejoin: miter"/>
   </g>
   <g id="patch_8">
    <path d="M 454.784689 288 
L 590.191388 288 
L 590.191388 152.593301 
L 454.784689 152.593301 
L 454.784689 288 
z
" clip-path="url(#p12b86a55b9)" style="fill: none; stroke-dasharray: 9.25,4; stroke-dashoffset: 0; stroke: #006400; stroke-width: 2.5; stroke-linejoin: miter"/>
   </g>
   <g id="patch_9">
    <path d="M 319.37799 355.703349 
L 454.784689 355.703349 
L 454.784689 220.296651 
L 319.37799 220.296651 
L 319.37799 355.703349 
z
" clip-path="url(#p12b86a55b9)" style="fill: none; stroke-dasharray: 9.25,4; stroke-dashoffset: 0; stroke: #9932cc; stroke-width: 2.5; stroke-linejoin: miter"/>
   </g>
   <g id="patch_10">
    <path d="M 265.215311 166.133971 
L 400.62201 166.133971 
L 400.62201 30.727273 
L 265.215311 30.727273 
L 265.215311 166.133971 
z
" clip-path="url(#p12b86a55b9)" style="fill: none; stroke-dasharray: 9.25,4; stroke-dashoffset: 0; stroke: #000000; stroke-width: 2.5; stroke-linejoin: miter"/>
   </g>
   <g id="patch_11">
    <path d="M 198.298058 303.533468 
Q 195.887523 297.34369 196.66287 292.714896 
" style="fill: none; stroke: #00008b; stroke-width: 2.5; stroke-linecap: round"/>
    <path d="M 192.976203 297.775379 
L 196.66287 292.714896 
L 198.499256 298.700519 
" style="fill: none; stroke: #00008b; stroke-width: 2.5; stroke-linecap: round"/>
   </g>
   <g id="text_1">
    <!-- BL Pick -->
    <g style="fill: #00008b" transform="translate(177.511962 318) scale(0.14 -0.14)">
     <defs>
      <path id="DejaVuSans-Bold-42" d="M 2456 2859 
Q 2741 2859 2887 2984 
Q 3034 3109 3034 3353 
Q 3034 3594 2887 3720 
Q 2741 3847 2456 3847 
L 1791 3847 
L 1791 2859 
L 2456 2859 
z
M 2497 819 
Q 2859 819 3042 972 
Q 3225 1125 3225 1434 
Q 3225 1738 3044 1889 
Q 2863 2041 2497 2041 
L 1791 2041 
L 1791 819 
L 2497 819 
z
M 3616 2497 
Q 4003 2384 4215 2081 
Q 4428 1778 4428 1338 
Q 4428 663 3972 331 
Q 3516 0 2584 0 
L 588 0 
L 588 4666 
L 2394 4666 
Q 3366 4666 3802 4372 
Q 4238 4078 4238 3431 
Q 4238 3091 4078 2852 
Q 3919 2613 3616 2497 
z
" transform="scale(0.015625)"/>
      <path id="DejaVuSans-Bold-4c" d="M 588 4666 
L 1791 4666 
L 1791 909 
L 3903 909 
L 3903 0 
L 588 0 
L 588 4666 
z
" transform="scale(0.015625)"/>
      <path id="DejaVuSans-Bold-20" transform="scale(0.015625)"/>
      <path id="DejaVuSans-Bold-50" d="M 588 4666 
L 2584 4666 
Q 3475 4666 3951 4270 
Q 4428 3875 4428 3144 
Q 4428 2409 3951 2014 
Q 3475 1619 2584 1619 
L 1791 1619 
L 1791 0 
L 588 0 
L 588 4666 
z
M 1791 3794 
L 1791 2491 
L 2456 2491 
Q 2806 2491 2997 2661 
Q 3188 2831 3188 3144 
Q 3188 3456 2997 3625 
Q 2806 3794 2456 3794 
L 1791 3794 
z
" transform="scale(0.015625)"/>
      <path id="DejaVuSans-Bold-69" d="M 538 3500 
L 1656 3500 
L 1656 0 
L 538 0 
L 538 3500 
z
M 538 4863 
L 1656 4863 
L 1656 3950 
L 538 3950 
L 538 4863 
z
" transform="scale(0.015625)"/>
      <path id="DejaVuSans-Bold-63" d="M 3366 3391 
L 3366 2478 
Q 3138 2634 2908 2709 
Q 2678 2784 2431 2784 
Q 1963 2784 1702 2511 
Q 1441 2238 1441 1747 
Q 1441 1256 1702 982 
Q 1963 709 2431 709 
Q 2694 709 2930 787 
Q 3166 866 3366 1019 
L 3366 103 
Q 3103 6 2833 -42 
Q 2563 -91 2291 -91 
Q 1344 -91 809 395 
Q 275 881 275 1747 
Q 275 2613 809 3098 
Q 1344 3584 2291 3584 
Q 2566 3584 2833 3536 
Q 3100 3488 3366 3391 
z
" transform="scale(0.015625)"/>
      <path id="DejaVuSans-Bold-6b" d="M 538 4863 
L 1656 4863 
L 1656 2216 
L 2944 3500 
L 4244 3500 
L 2534 1894 
L 4378 0 
L 3022 0 
L 1656 1459 
L 1656 0 
L 538 0 
L 538 4863 
z
" transform="scale(0.015625)"/>
     </defs>
     <use xlink:href="#DejaVuSans-Bold-42"/>
     <use xlink:href="#DejaVuSans-Bold-4c" x="76.220703"/>
     <use xlink:href="#DejaVuSans-Bold-20" x="139.941406"/>
     <use xlink:href="#DejaVuSans-Bold-50" x="174.755859"/>
     <use xlink:href="#DejaVuSans-Bold-69" x="248.046875"/>
     <use xlink:href="#DejaVuSans-Bold-63" x="282.324219"/>
     <use xlink:href="#DejaVuSans-Bold-6b" x="341.601562"/>
    </g>
   </g>
   <g id="patch_12">
    <path d="M 562.870301 463.914461 
Q 547.694458 478.986722 527.275798 477.862091 
" style="fill: none; stroke: #000000; stroke-width: 2.5; stroke-linecap: round"/>
    <path d="M 532.713336 480.965827 
L 527.275798 477.862091 
L 533.02131 475.374302 
" style="fill: none; stroke: #000000; stroke-width: 2.5; stroke-linecap: round"/>
   </g>
   <g id="text_2">
    <!-- LB Pick -->
    <g transform="translate(542.488038 457.569378) scale(0.14 -0.14)">
     <use xlink:href="#DejaVuSans-Bold-4c"/>
     <use xlink:href="#DejaVuSans-Bold-42" x="63.720703"/>
     <use xlink:href="#DejaVuSans-Bold-20" x="139.941406"/>
     <use xlink:href="#DejaVuSans-Bold-50" x="174.755859"/>
     <use xlink:href="#DejaVuSans-Bold-69" x="248.046875"/>
     <use xlink:href="#DejaVuSans-Bold-63" x="282.324219"/>
     <use xlink:href="#DejaVuSans-Bold-6b" x="341.601562"/>
    </g>
   </g>
   <g id="patch_13">
    <path d="M 575.399582 196.79138 
Q 556.657658 220.423308 527.283599 220.333863 
" style="fill: none; stroke: #006400; stroke-width: 2.5; stroke-linecap: round"/>
    <path d="M 532.875047 223.150902 
L 527.283599 220.333863 
L 532.892099 217.550928 
" style="fill: none; stroke: #006400; stroke-width: 2.5; stroke-linecap: round"/>
   </g>
   <g id="text_3">
    <!-- UR Pick -->
    <g style="fill: #006400" transform="translate(552.488038 190.296651) scale(0.14 -0.14)">
     <defs>
      <path id="DejaVuSans-Bold-55" d="M 588 4666 
L 1791 4666 
L 1791 1869 
Q 1791 1291 1980 1042 
Q 2169 794 2597 794 
Q 3028 794 3217 1042 
Q 3406 1291 3406 1869 
L 3406 4666 
L 4609 4666 
L 4609 1869 
Q 4609 878 4112 393 
Q 3616 -91 2597 -91 
Q 1581 -91 1084 393 
Q 588 878 588 1869 
L 588 4666 
z
" transform="scale(0.015625)"/>
      <path id="DejaVuSans-Bold-52" d="M 2297 2597 
Q 2675 2597 2839 2737 
Q 3003 2878 3003 3200 
Q 3003 3519 2839 3656 
Q 2675 3794 2297 3794 
L 1791 3794 
L 1791 2597 
L 2297 2597 
z
M 1791 1766 
L 1791 0 
L 588 0 
L 588 4666 
L 2425 4666 
Q 3347 4666 3776 4356 
Q 4206 4047 4206 3378 
Q 4206 2916 3982 2619 
Q 3759 2322 3309 2181 
Q 3556 2125 3751 1926 
Q 3947 1728 4147 1325 
L 4800 0 
L 3519 0 
L 2950 1159 
Q 2778 1509 2601 1637 
Q 2425 1766 2131 1766 
L 1791 1766 
z
" transform="scale(0.015625)"/>
     </defs>
     <use xlink:href="#DejaVuSans-Bold-55"/>
     <use xlink:href="#DejaVuSans-Bold-52" x="81.201172"/>
     <use xlink:href="#DejaVuSans-Bold-20" x="158.203125"/>
     <use xlink:href="#DejaVuSans-Bold-50" x="193.017578"/>
     <use xlink:href="#DejaVuSans-Bold-69" x="266.308594"/>
     <use xlink:href="#DejaVuSans-Bold-63" x="300.585938"/>
     <use xlink:href="#DejaVuSans-Bold-6b" x="359.863281"/>
    </g>
   </g>
   <g id="patch_14">
    <path d="M 375.599625 254.354765 
Q 387.119515 266.96105 387.114108 283.206882 
" style="fill: none; stroke: #9932cc; stroke-width: 2.5; stroke-linecap: round"/>
    <path d="M 389.915972 277.607815 
L 387.114108 283.206882 
L 384.315972 277.605951 
" style="fill: none; stroke: #9932cc; stroke-width: 2.5; stroke-linecap: round"/>
   </g>
   <g id="text_4">
    <!-- NCG Pick -->
    <g style="fill: #9932cc" transform="translate(327.08134 248) scale(0.14 -0.14)">
     <defs>
      <path id="DejaVuSans-Bold-4e" d="M 588 4666 
L 1931 4666 
L 3628 1466 
L 3628 4666 
L 4769 4666 
L 4769 0 
L 3425 0 
L 1728 3200 
L 1728 0 
L 588 0 
L 588 4666 
z
" transform="scale(0.015625)"/>
      <path id="DejaVuSans-Bold-43" d="M 4288 256 
Q 3956 84 3597 -3 
Q 3238 -91 2847 -91 
Q 1681 -91 1000 561 
Q 319 1213 319 2328 
Q 319 3447 1000 4098 
Q 1681 4750 2847 4750 
Q 3238 4750 3597 4662 
Q 3956 4575 4288 4403 
L 4288 3438 
Q 3953 3666 3628 3772 
Q 3303 3878 2944 3878 
Q 2300 3878 1931 3465 
Q 1563 3053 1563 2328 
Q 1563 1606 1931 1193 
Q 2300 781 2944 781 
Q 3303 781 3628 887 
Q 3953 994 4288 1222 
L 4288 256 
z
" transform="scale(0.015625)"/>
      <path id="DejaVuSans-Bold-47" d="M 4781 347 
Q 4331 128 3847 18 
Q 3363 -91 2847 -91 
Q 1681 -91 1000 561 
Q 319 1213 319 2328 
Q 319 3456 1012 4103 
Q 1706 4750 2913 4750 
Q 3378 4750 3804 4662 
Q 4231 4575 4609 4403 
L 4609 3438 
Q 4219 3659 3833 3768 
Q 3447 3878 3059 3878 
Q 2341 3878 1952 3476 
Q 1563 3075 1563 2328 
Q 1563 1588 1938 1184 
Q 2313 781 3003 781 
Q 3191 781 3352 804 
Q 3513 828 3641 878 
L 3641 1784 
L 2906 1784 
L 2906 2591 
L 4781 2591 
L 4781 347 
z
" transform="scale(0.015625)"/>
     </defs>
     <use xlink:href="#DejaVuSans-Bold-4e"/>
     <use xlink:href="#DejaVuSans-Bold-43" x="83.691406"/>
     <use xlink:href="#DejaVuSans-Bold-47" x="157.080078"/>
     <use xlink:href="#DejaVuSans-Bold-20" x="239.160156"/>
     <use xlink:href="#DejaVuSans-Bold-50" x="273.974609"/>
     <use xlink:href="#DejaVuSans-Bold-69" x="347.265625"/>
     <use xlink:href="#DejaVuSans-Bold-63" x="381.542969"/>
     <use xlink:href="#DejaVuSans-Bold-6b" x="440.820312"/>
    </g>
   </g>
   <g id="patch_15">
    <path d="M 316.322817 81.681803 
Q 325.026282 87.190275 330.177518 94.494758 
" style="fill: none; stroke: #000000; stroke-width: 2.5; stroke-linecap: round"/>
    <path d="M 329.238357 88.304606 
L 330.177518 94.494758 
L 324.6619 91.531995 
" style="fill: none; stroke: #000000; stroke-width: 2.5; stroke-linecap: round"/>
   </g>
   <g id="text_5">
    <!-- RU Pick -->
    <g transform="translate(252.91866 78.430622) scale(0.14 -0.14)">
     <use xlink:href="#DejaVuSans-Bold-52"/>
     <use xlink:href="#DejaVuSans-Bold-55" x="77.001953"/>
     <use xlink:href="#DejaVuSans-Bold-20" x="158.203125"/>
     <use xlink:href="#DejaVuSans-Bold-50" x="193.017578"/>
     <use xlink:href="#DejaVuSans-Bold-69" x="266.308594"/>
     <use xlink:href="#DejaVuSans-Bold-63" x="300.585938"/>
     <use xlink:href="#DejaVuSans-Bold-6b" x="359.863281"/>
    </g>
   </g>
  </g>
 </g>
 <defs>
  <clipPath id="p12b86a55b9">
   <rect x="106.789474" y="5" width="506.421053" height="566"/>
  </clipPath>
 </defs>
</svg>
